<svg width="451" height="351" viewBox="0 0 451 351" fill="none" xmlns="http://www.w3.org/2000/svg">
    <path fill-rule="evenodd" clip-rule="evenodd" d="M24.6485 312.454C60.6834 351.679 200.032 329.148 291.787 329.148C331.371 329.148 464.207 348.987 409.353 212.739C229.496 -233.992 -89.5285 188.169 24.6485 312.454Z" fill="#E71096" fill-opacity="0.7"/>
    <path fill-rule="evenodd" clip-rule="evenodd" d="M350.957 131.636C349.256 131.615 347.661 133.041 347.493 134.733C347.424 135.425 347.717 136.285 348.406 136.38C348.922 136.452 349.374 136.053 349.721 135.664C350.455 134.842 351.085 133.928 351.592 132.95C351.762 132.621 351.912 132.2 351.688 131.906C351.525 131.691 351.226 131.64 350.957 131.636ZM352.936 124.173C355.97 125.231 358.72 127.093 360.83 129.517C362.643 131.601 364.024 134.305 363.643 137.04C363.503 138.045 363.132 139.002 362.71 139.924C361.109 143.414 358.357 146.76 354.577 147.436C352.594 147.79 350.55 147.365 348.643 146.716C346.437 145.966 344.334 144.914 342.412 143.598C341.392 142.9 340.379 142.071 339.932 140.919C339.624 140.125 339.615 139.251 339.626 138.399C339.655 136.293 339.794 134.151 340.529 132.177C341.458 129.679 343.276 127.617 345.203 125.777C345.979 125.037 346.801 124.308 347.796 123.911C349.425 123.262 351.281 123.595 352.936 124.173Z" fill="white"/>
    <path fill-rule="evenodd" clip-rule="evenodd" d="M350.959 3.08895C360.952 13.3944 368.839 25.7174 374.002 39.0907C374.357 40.0092 374.701 41.0295 374.362 41.9541C371.758 49.0732 366.731 55.0083 361.802 60.7792C358.653 64.4668 355.503 68.1544 352.353 71.842C349.347 75.3624 346.34 78.8833 343.231 82.3151C327.406 99.7884 308.706 115.067 287.049 124.468C286.232 124.823 285.355 125.177 284.475 125.035C283.595 124.893 282.77 124.042 283 123.184C285.678 113.213 288.372 102.788 286.224 92.6905C285.706 90.2549 285.128 87.1883 287.148 85.7227C303.505 73.8569 315.281 56.8964 326.567 40.1662C329.405 35.9595 332.236 31.7411 334.747 27.3331C339.206 19.5067 342.639 11.1018 344.934 2.39804C345.249 1.20367 346.763 0.665842 347.962 0.978845C349.161 1.29185 350.098 2.20077 350.959 3.08895" fill="white"/>
    <path fill-rule="evenodd" clip-rule="evenodd" d="M348.998 300.783C350.157 298.818 351.594 296.655 353.845 296.282C354.732 296.135 355.2 295.171 355.502 294.324C359.222 283.889 359.581 272.284 356.512 261.64C355.636 258.601 356.714 255.38 357.782 252.403C360.535 244.721 363.289 237.04 366.043 229.358C364.465 226.629 360.305 226.709 358.174 224.387C355.431 221.398 357.5 216.646 359.648 213.205C372.2 193.104 384.752 173.003 397.303 152.901C398.841 150.439 402.216 149.667 405.044 150.323C407.872 150.979 410.288 152.759 412.614 154.497C421.768 161.334 430.922 168.171 440.077 175.009C444.99 178.679 450.414 183.366 450.131 189.492C449.974 192.882 448.034 195.895 446.158 198.722C438.903 209.655 431.648 220.587 424.393 231.519C420.306 237.678 421.435 245.767 420.199 253.055C418.248 264.57 410.351 274.026 403.039 283.134C395.727 292.241 388.411 302.41 388 314.082C387.51 327.994 380.901 341.58 370.259 350.554C373.346 343.065 353.845 346.052 331.537 337.177C335.208 324.19 342.139 312.404 348.998 300.783Z" fill="white"/>
    <path fill-rule="evenodd" clip-rule="evenodd" d="M104.048 333.351C102.657 332.213 102.214 330.292 101.968 328.507C99.1272 307.851 111.328 287.463 109.154 266.726C108.035 256.039 103.124 246.067 96.9451 237.297C92.678 231.241 92.4387 223.128 94.0307 215.882C95.6227 208.635 98.8341 201.86 101 194.765C110.632 163.217 98.9118 129.514 87.324 98.6365C110.415 87.4705 137.36 89.6332 162.94 91.146C188.521 92.6588 216.032 92.7659 237.352 78.48C240.274 109.385 233.831 140.323 227.424 170.692C259.934 167.525 292.443 164.358 324.953 161.191C325.886 161.1 326.905 161.03 327.68 161.559C328.713 162.265 328.872 163.706 328.931 164.96C330.451 197.1 331.372 229.268 331.694 261.443C331.702 262.25 331.674 263.149 331.108 263.722C330.624 264.212 329.884 264.314 329.201 264.39C283.654 269.466 238.106 274.542 192.559 279.618C188.621 280.056 183.01 279.031 183.241 275.055C184.269 257.327 183.669 239.503 181.45 221.886C169.345 221.428 157.158 223.274 145.726 227.297C143.132 228.209 140.013 230.663 141.412 233.04C150.667 248.768 139.18 272.407 151.75 285.609C156.072 290.148 155.773 297.289 154.916 303.512C153.08 316.852 149.961 330.013 145.617 342.752C147.717 328.089 105.332 341.214 104.048 333.351Z" fill="white"/>
    <path fill-rule="evenodd" clip-rule="evenodd" d="M274.972 216.815C275.006 216.403 275.056 215.962 275.328 215.651C275.594 215.348 276.014 215.239 276.407 215.147C286.543 212.787 297.013 211.864 307.406 212.414C308.729 212.484 310.431 212.932 310.519 214.254C311.021 221.837 311.523 229.419 312.025 237.002C312.05 237.385 312.063 237.811 311.818 238.107C311.618 238.348 311.295 238.441 310.992 238.52C300.182 241.338 288.788 241.894 277.756 240.141C277.472 240.096 277.173 240.042 276.952 239.858C276.686 239.635 276.592 239.271 276.516 238.932C274.89 231.694 274.367 224.209 274.972 216.815ZM277.362 229.394C277.561 232.257 278.162 235.092 279.141 237.79C280.118 237.931 281.084 238.134 282.057 238.298C290.441 239.718 299.015 238.29 307.398 236.863C307.993 236.762 308.645 236.628 309.012 236.149C309.388 235.66 309.338 234.979 309.27 234.366C308.981 231.753 308.692 229.14 308.404 226.528C308.38 226.317 308.351 226.091 308.208 225.934C308.035 225.744 307.752 225.713 307.495 225.696C301.538 225.304 295.561 225.749 289.608 226.193C286.317 226.438 283.027 226.684 279.736 226.93C278.962 226.987 278.084 227.102 277.639 227.737C277.312 228.205 277.323 228.824 277.362 229.394ZM277.455 218.465C276.934 220.135 276.841 221.937 277.186 223.651C277.248 223.96 277.335 224.285 277.569 224.495C277.916 224.806 278.444 224.754 278.905 224.687C284.512 223.866 290.179 223.458 295.845 223.467C296.644 223.469 296.889 222.392 296.881 221.593C296.868 220.422 296.855 219.251 296.842 218.08C296.835 217.402 296.801 216.656 296.337 216.162C295.779 215.568 294.848 215.586 294.036 215.648C292.159 215.792 290.281 215.935 288.404 216.079C287.506 216.147 285.125 216.757 284.03 216.829C282.124 217.133 280.219 217.437 278.313 217.741C278.11 217.774 277.895 217.811 277.739 217.945C277.586 218.075 277.515 218.274 277.455 218.465ZM302.59 223.56C304.08 223.579 305.571 223.43 307.028 223.117C307.375 223.042 307.739 222.947 307.986 222.693C308.35 222.32 308.346 221.734 308.32 221.214C308.243 219.704 308.166 218.194 308.088 216.684C308.061 216.146 308 215.539 307.579 215.202C307.209 214.906 306.686 214.923 306.213 214.956C304.556 215.068 302.9 215.181 301.243 215.294C300.981 215.312 300.705 215.334 300.486 215.479C300.085 215.744 300.025 216.299 300.014 216.78C299.977 218.38 300.042 219.983 300.209 221.575C300.258 222.036 300.325 222.522 300.61 222.887C301.054 223.456 301.868 223.551 302.59 223.56Z" fill="#868686"/>
    <path fill-rule="evenodd" clip-rule="evenodd" d="M300.914 183.679C303.128 182.721 305.845 183.042 307.775 184.489C309.705 185.937 310.774 188.456 310.473 190.85C311.83 190.117 313.551 189.394 314.817 190.275C316.246 191.27 315.92 193.412 315.705 195.14C315.33 198.16 315.817 201.282 317.093 204.044C317.62 205.185 318.073 206.916 316.904 207.377C316.706 207.454 316.491 207.472 316.279 207.489C302.564 208.595 288.85 209.7 275.135 210.805C274.759 210.836 274.337 210.852 274.053 210.604C273.763 210.351 273.726 209.921 273.71 209.536C273.579 206.31 273.447 203.084 273.316 199.858C273.281 198.993 273.264 198.06 273.753 197.345C274.561 196.162 276.256 196.165 277.671 195.939C279.086 195.712 280.733 194.518 280.188 193.192C279.581 191.714 281.65 190.634 283.23 190.394C284.81 190.153 286.905 189.212 286.427 187.687C285.904 186.022 288.196 184.988 289.926 184.758C291.147 184.596 292.424 184.439 293.582 184.858C294.74 185.277 295.719 186.47 295.458 187.673C295.159 189.051 296.838 190.335 298.161 189.848C299.484 189.362 300.021 187.553 299.351 186.312C298.804 185.299 299.857 184.136 300.914 183.679ZM307.996 204.938C307.483 203.987 307.48 202.854 307.475 201.774C307.453 196.7 307.141 191.627 306.542 186.589C306.512 186.334 306.463 186.05 306.255 185.901C306.076 185.773 305.834 185.788 305.615 185.808C304.543 185.909 303.274 186.145 302.85 187.135C302.67 187.557 302.691 188.034 302.715 188.492C302.987 193.578 303.259 198.663 303.53 203.748C303.556 204.222 303.619 204.766 304.012 205.03C304.227 205.174 304.497 205.201 304.755 205.215C305.841 205.275 306.936 205.181 307.996 204.938ZM289.55 197.118C289.417 197.966 289.23 198.807 289.18 199.663C289.097 201.094 289.398 202.516 289.698 203.917C289.89 204.816 291.052 205.258 291.903 204.912C292.754 204.565 293.268 203.657 293.41 202.749C293.551 201.841 293.385 200.917 293.241 200.01C292.672 196.445 292.426 192.828 292.506 189.219C292.527 188.306 291.636 187.481 290.727 187.571C289.818 187.661 289.106 188.645 289.306 189.536C289.86 192.019 289.944 194.606 289.55 197.118ZM298.57 192.248C298.035 191.548 296.809 191.921 296.392 192.697C295.975 193.473 296.102 194.414 296.206 195.289C296.476 197.575 296.502 199.889 296.283 202.179C296.218 202.855 296.146 203.592 296.519 204.159C297.093 205.03 298.351 205.023 299.389 204.917C299.715 204.884 300.089 204.821 300.253 204.538C300.366 204.341 300.34 204.096 300.309 203.87C299.83 200.316 299.352 196.762 298.873 193.208C298.828 192.872 298.776 192.518 298.57 192.248ZM310.449 193.776C310.046 194.325 309.962 195.04 309.927 195.72C309.807 198.053 310.116 200.384 310.424 202.7C310.546 203.612 310.963 204.785 311.881 204.722C312.812 204.659 313.055 203.415 313.033 202.482C312.976 200.012 312.918 197.543 312.861 195.073C312.846 194.424 312.778 193.671 312.239 193.309C311.673 192.929 310.852 193.226 310.449 193.776ZM282.337 193.192C282.337 193.192 282.746 196.415 282.889 198.058C283.068 200.119 283.296 202.177 283.572 204.228C283.613 204.525 283.666 204.848 283.886 205.053C284.267 205.408 285.736 205.172 286.007 204.727C286.278 204.282 286.263 203.726 286.239 203.206C286.165 201.56 286.09 199.913 286.015 198.267C285.935 196.502 285.516 192.697 285.516 192.697M277.007 204.863C277.124 205.232 277.263 205.619 277.562 205.866C278.144 206.348 279.089 206.049 279.548 205.449C280.008 204.848 280.111 204.057 280.199 203.306C280.307 202.384 280.411 201.426 280.112 200.548C279.814 199.669 278.988 198.896 278.064 198.978C277.214 199.053 276.555 199.83 276.357 200.66C276.159 201.49 276.326 202.36 276.532 203.188C276.672 203.751 276.831 204.31 277.007 204.863Z" fill="#E7EAEE"/>
    <path fill-rule="evenodd" clip-rule="evenodd" d="M335.513 75.9746C334.122 78.0627 332.613 80.1779 330.461 81.4672C328.308 82.7564 325.337 83.0076 323.403 81.4092C321.269 79.6458 321.137 76.4669 321.306 73.7039C321.371 72.6401 321.456 71.5678 321.761 70.5466C322.289 68.7754 323.444 67.2638 324.649 65.8622C326.111 64.1619 327.73 62.5217 329.758 61.5648C331.786 60.6079 334.306 60.4399 336.207 61.6304C338.481 63.0555 339.323 66.0869 338.892 68.7362C338.461 71.3855 337.001 73.7408 335.513 75.9746M331.095 78.1838C332.849 76.3154 334.353 74.213 335.556 71.9498C336.347 70.4604 337.02 68.8416 336.989 67.1554C336.957 65.4693 336.068 63.7068 334.502 63.0811C332.462 62.2661 330.223 63.5698 328.518 64.955C327.304 65.9411 326.129 67.0229 325.351 68.379C324.858 69.2366 324.538 70.1802 324.222 71.1169C323.622 72.8888 323.014 74.7352 323.243 76.5918C323.471 78.4485 324.799 80.3124 326.66 80.5048C328.382 80.6828 329.91 79.446 331.095 78.1838Z" fill="#868686"/>
    <path fill-rule="evenodd" clip-rule="evenodd" d="M365.572 8.27096C377.366 20.4803 386.675 35.0798 392.769 50.9238C393.187 52.012 393.593 53.2208 393.194 54.3162C390.12 62.7505 384.187 69.782 378.369 76.6191L367.218 89.7257C363.669 93.8964 360.12 98.0678 356.451 102.134C337.773 122.835 315.703 140.937 290.141 152.074C289.177 152.495 288.142 152.914 287.103 152.746C286.064 152.578 285.091 151.569 285.363 150.553C288.523 138.74 291.703 126.389 289.168 114.426C288.556 111.54 287.874 107.907 290.258 106.171C309.564 92.1129 323.463 72.019 336.783 52.198C340.133 47.2141 343.473 42.2164 346.437 36.994C351.7 27.7218 355.753 17.7641 358.461 7.45242C358.833 6.03739 360.619 5.4002 362.034 5.77103C363.45 6.14186 364.555 7.2187 365.572 8.27096ZM357.318 23.4329C356.119 22.9372 355.014 24.2778 354.403 25.4221C353.743 26.6599 353.083 27.8996 352.422 29.1403L352.421 29.1429C340.201 52.0961 327.794 75.4015 309.172 93.4805C307.413 95.1886 305.446 97.2522 305.77 99.6829C306.81 107.474 302.65 115.702 295.759 119.485C292.631 121.203 292.668 125.634 293.126 129.173C293.31 130.59 293.845 132.366 295.269 132.486C299.445 132.838 303.452 134.894 306.174 138.08C307.033 139.085 308.661 138.457 309.78 137.753C337.951 120.043 359.597 93.8834 380.731 68.1809C381.46 67.2942 382.236 66.177 381.856 65.0938C378.658 55.9835 379.17 45.6301 383.253 36.8803C380.844 32.0872 377.973 27.5265 374.693 23.2818C369.235 25.6513 362.816 25.7071 357.318 23.4329ZM290.498 147.396C291.609 147.978 292.954 147.424 294.066 146.844C296.988 145.319 299.802 143.588 302.481 141.668C303.189 141.16 303.4 140.147 303.15 139.313C302.9 138.478 302.273 137.806 301.579 137.279C299.413 135.635 296.385 135.203 293.845 136.175C293.376 136.354 292.91 136.589 292.587 136.973C292.208 137.423 292.07 138.023 291.948 138.598C291.334 141.507 290.85 144.444 290.498 147.396ZM369.61 17.3665C367.696 13.6237 364.744 10.4186 361.171 8.20365C359.928 9.29928 359.686 10.9641 359.44 12.6614C359.271 13.826 359.1 15.006 358.601 16.0277C358.439 16.3602 358.241 16.6782 358.043 16.9955L358.043 16.9957L358.042 16.996L358.042 16.9964C357.665 17.601 357.29 18.2031 357.168 18.8974C356.984 19.9565 357.88 21.2852 358.897 20.9348C359.723 20.6499 360.589 20.8329 361.463 21.0175C361.924 21.1149 362.387 21.2127 362.847 21.2425C365.53 21.4156 367.756 19.3137 369.61 17.3665ZM384.781 39.7992C382.731 43.878 383.055 48.6954 383.428 53.2454L383.963 59.7706C384.022 60.4882 384.412 61.4565 385.104 61.2578C385.533 60.0558 386.351 59.0643 387.172 58.07C387.889 57.2004 388.608 56.3288 389.07 55.3126C390.636 51.8711 388.898 47.9049 387.186 44.5339L384.781 39.7992ZM292.99 112.222C293.076 113.499 294.402 114.454 295.68 114.418C296.959 114.382 298.11 113.555 298.857 112.516C299.605 111.478 300.014 110.241 300.414 109.026L301.732 105.013C302.1 103.894 302.122 102.183 300.952 102.052C300.53 102.004 300.126 102.228 299.78 102.474C298.468 103.406 297.513 104.746 296.583 106.059L294.05 109.638C293.501 110.414 292.927 111.274 292.99 112.222ZM62.7951 93.1C53.8967 76.8075 48.216 58.7656 46.1749 40.314C46.0494 39.1794 44.7983 38.4445 43.6574 38.4839C42.5166 38.5234 41.4807 39.1262 40.5105 39.7277C26.7362 48.2678 15.0111 60.0884 6.58291 73.9315C5.72979 75.3327 4.88874 76.8207 4.781 78.4576C4.67526 80.0642 5.28865 81.6226 5.9207 83.1034C15.2179 104.885 30.7218 123.36 46.4599 141.057C58.5815 154.688 71.5575 168.486 88.4588 175.347C91.1905 176.456 95.1583 176.907 96.3164 174.196C96.6533 173.407 96.6352 172.52 96.6178 171.662L96.6171 171.629C96.4309 162.439 97.4753 153.224 99.7137 144.308C100.232 142.246 100.501 139.464 98.5713 138.57C91.3144 135.207 86.3408 128.425 81.6899 121.918C75.0062 112.567 68.3047 103.188 62.7951 93.1ZM78.5041 164.318C77.5043 164.584 76.5061 163.954 75.6714 163.342C60.2888 152.072 48.3681 136.818 36.6558 121.769L15.9867 95.2115C19.4755 92.9896 19.9185 88.1618 19.9945 84.0262C20.0934 78.6504 20.1656 73.1157 18.2236 68.102C17.792 66.9876 18.3539 65.7527 18.9557 64.7202C21.5364 60.292 25.1155 56.4494 29.3494 53.561C29.7593 53.2814 30.1932 53.0036 30.6845 52.9342C31.9811 52.751 32.9758 54.012 33.6687 55.1231C36.4052 59.5114 40.1661 64.4741 45.3251 64.1128C47.2895 63.9752 48.3788 66.2891 48.9519 68.173C56.0781 91.6009 69.458 112.732 85.1486 131.532C87.1876 133.975 87.6992 137.273 88.2062 140.54C88.7715 144.183 89.331 147.79 91.9964 150.132C94.2721 152.133 93.8497 155.725 93.2356 158.692C93.11 159.299 92.9603 159.949 92.4992 160.363C92.1567 160.671 91.6937 160.799 91.2488 160.918L78.5041 164.318ZM42.0368 58.6859C39.215 56.7142 36.7775 54.1946 34.9002 51.3091C34.4942 50.685 34.0997 49.9854 34.1711 49.2442C34.2486 48.4383 34.8549 47.7934 35.4583 47.2534C36.9481 45.92 38.632 44.8037 40.4402 43.9507C41.1024 43.6383 41.9574 43.3845 42.5075 43.8677C42.8314 44.1522 42.9337 44.6067 43.0182 45.0295L45.6245 58.0646C45.7786 58.8352 44.9703 59.5292 44.1848 59.5516C43.3992 59.574 42.681 59.136 42.0368 58.6859ZM16.2445 83.898C16.1892 86.3498 16.0019 89.1015 14.1645 90.7257C13.7799 90.7714 13.5245 90.3494 13.3738 89.9927C12.0499 86.8587 10.7077 83.6493 10.4992 80.2536C10.2908 76.8579 11.4288 73.1808 14.2036 71.2125C14.5791 70.9461 15.1298 70.7262 15.4613 71.0457C15.5945 71.1741 15.6514 71.3605 15.7 71.539C16.454 74.3106 16.3947 77.2295 16.33 80.1012L16.2445 83.898ZM91.1249 165.453C91.5706 165.818 91.618 166.47 91.6301 167.046L91.7626 173.348C89.1774 171.915 86.7006 170.286 84.3605 168.48C83.9167 168.138 83.4292 167.583 83.7009 167.093C83.8357 166.85 84.1158 166.733 84.3766 166.637C86.0494 166.02 87.779 165.557 89.5364 165.256C90.0796 165.163 90.6984 165.104 91.1249 165.453ZM91.2737 140.629C91.2501 140.344 91.25 140.034 91.4192 139.804C91.8657 139.197 92.8345 139.747 93.2441 140.379C94.2305 141.902 94.4482 143.897 93.8137 145.597C92.3652 144.355 91.432 142.53 91.2737 140.629ZM380.148 81.6997C382.199 79.1167 385.938 78.745 389.235 78.8256C390.006 78.8444 390.799 78.8816 391.5 79.2013C393.451 80.0903 393.865 82.6394 393.931 84.7822C393.991 86.7319 393.98 88.7071 393.506 90.5993C393.032 92.4915 392.052 94.3145 390.485 95.4758C389.78 95.9977 388.963 96.3781 388.098 96.5229C386.762 96.7467 385.394 96.4034 384.125 95.9309C382.432 95.3011 380.827 94.4362 379.371 93.3689C378.659 92.8476 377.924 92.1649 377.901 91.283C377.848 89.2495 378.076 87.2088 378.576 85.2368C378.895 83.9766 379.34 82.718 380.148 81.6997ZM385.467 94.5646C388.1 95.3206 390.902 93.2832 391.899 90.7316C392.897 88.18 392.528 85.314 391.98 82.6297C391.769 81.5991 390.668 81.0235 389.653 80.7479C388.081 80.3214 386.41 80.2648 384.813 80.5841C384.02 80.7428 383.209 81.0145 382.652 81.6017C382.349 81.9216 382.139 82.3167 381.933 82.7064L380.39 85.6222C380.119 86.1351 379.846 86.6525 379.686 87.2103C379.209 88.8787 379.839 90.7313 381.004 92.0174C382.169 93.3034 383.799 94.0858 385.467 94.5646ZM350.22 124.047C352.635 124.89 354.824 126.372 356.503 128.301C357.947 129.959 359.046 132.112 358.742 134.29C358.631 135.089 358.336 135.851 358 136.585C356.726 139.363 354.535 142.026 351.526 142.564C349.948 142.846 348.32 142.508 346.803 141.992C345.047 141.394 343.373 140.557 341.843 139.509C341.031 138.954 340.225 138.294 339.869 137.377C339.624 136.745 339.616 136.049 339.625 135.371C339.648 133.695 339.759 131.99 340.344 130.418C341.083 128.43 342.53 126.789 344.065 125.324C344.682 124.735 345.336 124.154 346.129 123.839C347.426 123.322 348.902 123.587 350.22 124.047ZM352.689 138.66C354.435 136.933 355.45 134.43 355.174 131.99C354.897 129.551 353.246 127.261 350.936 126.428C349.977 126.082 348.912 125.986 347.929 126.258C347.399 126.405 346.901 126.655 346.437 126.95C344.449 128.214 343.053 130.371 342.714 132.702C342.376 135.034 343.099 137.499 344.645 139.276C345.635 140.415 347.25 140.903 348.747 140.714C350.244 140.525 351.617 139.721 352.689 138.66ZM132.286 109.666C132.205 108.515 130.667 108.214 129.514 108.248C123.463 108.426 117.419 108.879 111.409 109.606C110.422 109.725 110.342 111.317 111.134 111.918C111.926 112.52 113.03 112.408 114.015 112.268L132.286 109.666ZM112.941 117.444C112.993 116.851 113.737 116.637 114.328 116.57L149.972 112.534C150.616 112.461 151.303 112.395 151.883 112.685C152.463 112.975 152.837 113.769 152.458 114.296C152.179 114.684 151.644 114.763 151.167 114.809L114.711 118.347C113.953 118.421 112.874 118.203 112.941 117.444ZM192.848 123.448C190.853 123.886 188.807 123.166 186.894 122.451C180.71 120.14 174.55 117.765 168.415 115.327C165.939 114.343 163.221 115.817 160.994 117.28C154.548 121.514 148.342 126.114 142.416 131.049C140.894 132.316 138.551 131.427 137.016 130.175C136.691 129.91 136.372 129.628 136.051 129.345L136.051 129.345C134.855 128.288 133.644 127.217 132.098 126.998C129.72 126.661 127.628 128.463 125.906 130.136L114.796 140.926C113.302 142.377 111.729 144.701 113.059 146.304C113.936 147.361 115.547 147.307 116.912 147.149C124.039 146.323 131.132 145.164 138.221 144.006L138.222 144.006C149.939 142.092 161.65 140.179 173.502 139.769C176.128 139.679 178.756 139.662 181.384 139.645C183.03 139.635 184.675 139.624 186.321 139.595C193.742 139.466 201.156 138.966 208.527 138.098C208.884 138.056 209.29 137.982 209.475 137.675C209.614 137.442 209.579 137.149 209.54 136.881L206.418 115.637C206.259 114.558 205.982 113.31 204.995 112.844C203.999 112.373 202.825 112.98 202.007 113.719C200.726 114.875 199.74 116.411 198.768 117.926C197.172 120.411 195.612 122.84 192.848 123.448ZM142.144 135.072C148.812 129.589 155.765 124.453 162.965 119.69C164.444 118.712 166.241 117.711 167.893 118.353L185.353 125.138C188.267 126.27 191.454 127.417 194.446 126.509C197.923 125.454 200.002 121.994 201.753 118.809C202.094 118.19 203.085 118.261 203.575 118.77C204.066 119.279 204.19 120.028 204.291 120.727L205.569 129.587C205.765 130.947 205.958 132.359 205.565 133.676C205.172 134.993 204.017 136.189 202.643 136.162C180.168 135.728 157.65 137.581 135.549 141.684C134.864 141.811 134.18 141.94 133.494 142.07C128.215 143.067 122.915 144.067 117.55 144.085C120.141 140.415 123.424 137.298 126.684 134.207C128.474 132.51 130.712 130.68 133.115 131.235C134.413 131.535 135.409 132.467 136.399 133.395L136.399 133.395L136.4 133.396C136.717 133.693 137.034 133.99 137.36 134.265C138.704 135.4 140.785 136.189 142.144 135.072ZM430.474 196.872C429.879 197.094 429.213 196.942 428.606 196.751C424.497 195.46 421.159 192.57 417.879 189.731L417.879 189.731C417.434 189.346 416.991 188.962 416.547 188.584C411.112 183.948 405.214 179.855 398.968 176.386C398.333 176.033 397.667 175.662 397.278 175.048C396.888 174.434 396.9 173.5 397.5 173.09C400.301 171.178 402.117 167.897 402.25 164.508C402.286 163.605 403.306 163.003 404.207 163.076C405.108 163.148 405.893 163.689 406.63 164.212L435.167 184.47C435.723 184.864 436.321 185.321 436.457 185.989C436.568 186.534 436.34 187.085 436.111 187.591C434.88 190.307 433.464 192.939 431.877 195.463C431.518 196.035 431.107 196.636 430.474 196.872ZM401.924 172.841C401.589 173.432 401.298 174.288 401.842 174.697L425.129 192.231C426.405 193.192 428.387 194.092 429.391 192.851C430.544 191.426 431.621 189.939 432.616 188.399C432.888 187.978 433.166 187.497 433.067 187.005C432.978 186.556 432.6 186.23 432.245 185.941C423.698 179.012 414.649 172.702 405.193 167.077L401.924 172.841ZM390.335 183.563C390.711 182.918 391.167 182.212 391.897 182.054C392.455 181.933 393.023 182.172 393.537 182.422C396.341 183.783 398.909 185.629 401.094 187.853C401.62 188.388 401.685 189.249 401.451 189.961C401.217 190.674 400.735 191.274 400.262 191.856C399.502 192.792 398.693 193.766 397.572 194.21C396.362 194.689 394.955 194.458 393.809 193.841C392.663 193.224 391.744 192.259 390.933 191.241C389.876 189.913 388.93 188.32 389.094 186.631C389.201 185.524 389.775 184.524 390.335 183.563ZM395.239 190.998C397.003 191.684 398.131 191.14 398.177 189.984C398.207 189.254 397.57 188.692 396.991 188.247L395.239 186.899C394.66 186.454 394.022 185.988 393.292 185.992C392.561 185.997 391.818 186.75 392.117 187.417C392.072 187.738 393.476 190.312 395.239 190.998ZM388.278 205.235C388.708 205.471 389.164 205.701 389.655 205.711C390.145 205.722 390.676 205.444 390.796 204.969C391.079 203.853 391.817 202.928 392.54 202.023L392.649 201.887C392.691 201.833 392.733 201.78 392.776 201.727C393.567 200.725 394.33 199.59 394.352 198.314C394.373 197.038 393.316 195.677 392.051 195.851C391.055 195.989 390.128 195.336 389.404 194.637C389.289 194.525 389.175 194.411 389.06 194.297C388.454 193.693 387.839 193.079 387.035 192.817C386.078 192.505 384.776 193.001 384.7 194.004C384.547 196.024 382.868 197.545 381.311 198.84C380.845 199.228 381.266 199.972 381.702 200.393C383.665 202.291 385.883 203.924 388.278 205.235ZM388.59 201.386L385.522 199.311C384.742 198.784 384.805 197.492 385.5 196.857C386.196 196.222 387.276 196.173 388.163 196.491C389.049 196.809 389.786 197.432 390.503 198.043C390.977 198.448 391.042 199.185 390.825 199.769C390.608 200.353 390.167 200.821 389.736 201.272C389.589 201.426 389.424 201.59 389.213 201.617C388.988 201.646 388.777 201.513 388.59 201.386ZM412.905 201.523L414.405 198.337C414.864 197.361 415.309 196.153 414.689 195.271C414.474 194.965 414.156 194.749 413.846 194.539L408.39 190.862C407.801 190.466 407.163 190.054 406.454 190.065C405.613 190.078 404.908 190.678 404.311 191.27C403.417 192.157 402.581 193.102 401.81 194.098C401.223 194.856 400.742 196.104 401.543 196.63L409.893 202.108C410.552 202.54 411.388 202.984 412.08 202.608C412.487 202.387 412.708 201.942 412.905 201.523ZM411.055 199.267C410.704 199.348 410.338 199.259 409.994 199.155C407.886 198.52 405.956 197.303 404.474 195.675C403.981 195.134 404.26 194.177 404.887 193.798C405.513 193.418 406.327 193.506 407.002 193.789C407.438 193.972 407.837 194.227 408.237 194.483C408.456 194.623 408.675 194.763 408.9 194.891C409.143 195.029 409.395 195.156 409.648 195.282C410.366 195.642 411.084 196.002 411.574 196.624C412.235 197.466 412.099 199.027 411.055 199.267ZM413.875 202.826C414.837 202.598 415.131 201.617 415.437 200.597C415.689 199.754 415.95 198.885 416.602 198.392C417.725 197.543 419.314 198.253 420.524 198.972L424.37 201.26C424.983 201.625 425.611 202.002 426.05 202.564C426.49 203.125 426.706 203.921 426.398 204.564C426.193 204.994 425.805 205.279 425.414 205.566C425.094 205.801 424.771 206.038 424.546 206.356C424.257 206.766 424.149 207.28 424.043 207.787C423.91 208.424 423.778 209.051 423.292 209.451C422.407 210.181 421.09 209.596 420.112 208.998L414.693 205.687C414.146 205.353 413.57 204.986 413.301 204.405C413.033 203.823 413.252 202.975 413.875 202.826ZM420.979 206.115C421.755 205.85 422.379 205.274 422.977 204.714C423.411 204.308 422.831 203.64 422.313 203.348L418.993 201.479C418.647 201.284 418.165 201.106 417.896 201.399C417.031 202.343 416.906 203.883 417.606 204.954C418.307 206.025 419.768 206.528 420.979 206.115ZM382.888 205.999C382.145 205.789 381.388 205.576 380.781 205.162C379.838 204.519 378.526 204.675 377.537 205.243C376.547 205.811 375.81 206.722 375.096 207.612C374.699 208.106 374.293 208.621 374.141 209.236C373.99 209.85 374.17 210.595 374.723 210.904L380.513 214.131C380.951 214.375 381.441 214.628 381.931 214.519C382.419 214.411 382.755 213.977 383.049 213.573L384.539 211.524C385.368 210.383 386.234 208.928 385.628 207.655C385.142 206.634 384.031 206.321 382.888 205.999ZM381.055 211.308C380.753 211.388 380.441 211.242 380.162 211.1L376.218 209.092C376.976 208.019 378.419 207.608 379.726 207.737C381.034 207.867 382.248 208.449 383.431 209.021L381.618 210.903C381.456 211.072 381.282 211.248 381.055 211.308ZM353.731 131.045C354.342 131.976 354.151 133.22 353.746 134.257C353.212 135.624 352.309 136.891 351.035 137.618C349.76 138.345 348.086 138.452 346.844 137.67C345.602 136.888 344.978 135.15 345.643 133.842C345.797 133.54 346.007 133.272 346.217 133.004C346.418 132.747 346.62 132.491 346.772 132.204C346.872 132.015 346.95 131.815 347.027 131.614C347.14 131.326 347.252 131.038 347.43 130.786C348.062 129.891 349.307 129.715 350.403 129.73C351.646 129.748 353.05 130.005 353.731 131.045ZM350.956 131.636C349.256 131.615 347.661 133.041 347.492 134.733C347.423 135.425 347.717 136.285 348.405 136.38C348.921 136.452 349.374 136.053 349.721 135.664C350.454 134.842 351.084 133.928 351.591 132.95C351.762 132.621 351.912 132.2 351.688 131.906C351.525 131.691 351.226 131.64 350.956 131.636ZM391.632 87.2801C391.501 85.7228 390.459 84.1912 388.946 83.801C387.023 83.3055 385.16 84.6589 383.634 85.9286C383.183 86.3042 382.711 86.7081 382.52 87.2633C382.196 88.2054 382.78 89.1982 383.354 90.0121C384.013 90.9442 384.716 91.8811 385.676 92.4972C386.637 93.1132 387.917 93.3524 388.925 92.8171C389.439 92.5442 389.838 92.0985 390.186 91.6319C391.119 90.3782 391.763 88.8373 391.632 87.2801ZM387.369 91.2724C386.717 91.3701 386.042 91.107 385.562 90.6554C384.844 89.9788 384.559 88.8912 384.81 87.9368C385.074 86.9319 385.917 86.1018 386.926 85.854C387.936 85.6061 389.068 85.9508 389.767 86.7188C389.741 86.9282 389.719 87.1388 389.698 87.3495L389.697 87.35C389.623 88.066 389.549 88.7832 389.301 89.4558C388.98 90.3265 388.286 91.1348 387.369 91.2724ZM335.626 334.183C339.171 321.644 345.862 310.264 352.485 299.043C353.604 297.146 354.992 295.058 357.165 294.698C358.021 294.556 358.473 293.625 358.765 292.807C362.357 282.732 362.703 271.528 359.74 261.25C358.894 258.316 359.935 255.206 360.966 252.332L368.942 230.081C368.113 228.646 366.544 228.016 364.955 227.377C363.625 226.843 362.282 226.303 361.344 225.281C358.697 222.395 360.694 217.807 362.768 214.485L399.125 156.26C400.61 153.883 403.868 153.137 406.599 153.771C409.329 154.404 411.662 156.123 413.908 157.801L440.424 177.606C445.167 181.149 450.404 185.675 450.131 191.59C449.98 194.863 448.107 197.772 446.295 200.502L425.281 232.168C422.564 236.262 422.234 241.24 421.903 246.241C421.753 248.503 421.603 250.769 421.232 252.961C419.419 263.652 412.299 272.506 405.478 280.989L405.094 281.466C404.95 281.645 404.807 281.824 404.663 282.003C397.603 290.796 390.539 300.615 390.142 311.884C389.669 325.316 383.288 338.435 373.013 347.099L381.954 325.407C384.081 320.249 386.05 313.831 382.491 309.533C380.881 307.589 378.448 306.56 376.112 305.602L362.225 299.905C361.268 299.512 360.281 299.113 359.246 299.106C356.02 299.087 354.101 302.585 352.793 305.534C348.267 315.736 342.488 325.381 335.626 334.183ZM381.288 304.725C383.669 305.606 387.021 306.142 388.149 303.867C393.61 292.859 399.22 281.64 407.913 272.954C412.923 267.948 415.994 261.268 417.732 254.402C419.469 247.536 419.961 240.425 420.446 233.359C418.336 234.127 418.153 236.973 418.162 239.218C418.182 244.167 417.317 249.117 415.62 253.766C415.265 254.739 414.788 255.79 413.837 256.201C412.886 256.611 411.485 255.787 411.805 254.802C414.258 247.24 415.172 239.183 414.475 231.264C414.26 228.809 413.802 226.183 412.057 224.443C412.246 228.319 412.435 232.213 412.042 236.075C411.363 242.755 408.967 249.125 406.593 255.407C406.285 256.222 405.912 257.111 405.129 257.494C404.346 257.878 403.13 257.27 403.335 256.423L406.891 241.725C408.846 233.644 410.768 224.951 407.742 217.207C406.218 217.105 405.859 219.284 405.995 220.806C406.927 231.228 404.046 241.572 401.193 251.638C400.86 252.814 399.682 254.283 398.766 253.475C398.371 253.126 398.353 252.526 398.385 252C398.565 249.039 399.376 246.174 400.187 243.311L400.188 243.308C400.439 242.42 400.69 241.533 400.923 240.643C403.066 232.433 403.613 223.81 402.523 215.395C400.645 217.802 399.848 220.855 399.097 223.814L394.634 241.38C392.616 249.321 390.039 258.051 383.044 262.316C382.487 262.656 381.84 262.972 381.205 262.822C380.416 262.634 379.969 261.819 379.64 261.078C375.176 251.022 374.618 239.291 378.108 228.857C378.32 228.224 377.676 227.562 377.01 227.51C376.345 227.457 375.722 227.82 375.176 228.205C369.449 232.246 367.255 239.567 365.433 246.335L363.011 255.336C362.657 256.65 362.301 257.977 362.227 259.336C362.115 261.402 362.654 263.424 363.191 265.434L363.191 265.435C363.315 265.901 363.44 266.366 363.556 266.831C365.886 276.182 364.833 286.337 360.635 295.011C360.016 296.29 361.65 297.453 362.982 297.947L381.288 304.725ZM390.336 218.829C389.381 218.171 388.358 217.42 388.062 216.299C387.61 214.579 389.247 212.852 391.011 212.62C392.774 212.389 394.499 213.24 395.96 214.254C398.018 215.681 400.623 213.504 402.164 211.529C400.085 210.286 398.102 208.355 398.02 205.934C397.938 203.513 400.882 201.207 402.841 202.632C403.601 203.185 404.521 203.523 405.43 203.858C406.793 204.359 408.133 204.852 408.88 206.045C409.73 207.402 409.428 209.237 408.563 210.585C407.697 211.932 406.365 212.9 405.065 213.834C406.932 214.019 408.749 214.685 410.293 215.749L411.977 210.844C412.107 210.464 412.249 210.066 412.548 209.797C413.125 209.28 414.023 209.44 414.762 209.674C416.7 210.289 418.601 211.25 419.88 212.83C421.159 214.411 421.693 216.707 420.799 218.534C419.905 220.36 417.382 221.334 415.672 220.233C415.318 220.004 414.962 219.699 414.605 219.394L414.605 219.394C413.652 218.577 412.699 217.761 411.779 218.414C414.588 220.601 416.517 223.887 417.059 227.405C425.9 213.937 434.647 200.406 443.299 186.815C444.124 185.518 444.79 183.473 443.446 182.727C437.7 179.539 432.622 175.271 427.556 171.012C421.161 165.637 414.786 160.278 407.113 157.131C406.626 156.931 406.093 156.738 405.584 156.872C405.051 157.013 404.675 157.477 404.34 157.915C390.051 176.565 377.227 196.337 366.025 216.989C364.462 219.87 366.554 223.304 368.555 225.9C369.555 227.197 371.485 228.568 372.575 227.346C373.949 225.805 376.202 224.925 378.148 225.613C380.094 226.3 381.305 228.831 380.247 230.603C379.481 231.885 380.98 233.31 382.289 234.027C384.905 235.46 387.588 236.77 390.327 237.951C390.708 238.115 391.151 238.276 391.522 238.09C391.875 237.913 392.018 237.493 392.129 237.114L395.163 226.673C395.662 224.956 395.996 222.727 394.523 221.713L390.336 218.829ZM444.616 189.561C444.214 189.423 443.846 189.826 443.609 190.181L420.889 224.19C420.278 225.105 419.652 226.056 419.474 227.142C419.295 228.228 419.694 229.49 420.682 229.974C422.319 230.774 424.03 229.092 425.08 227.604L446.19 197.685C447.757 195.464 446.431 192.427 445.089 190.062C444.973 189.858 444.839 189.638 444.616 189.561ZM380.649 234.976C380.249 234.685 379.651 234.858 379.316 235.223C378.981 235.587 378.844 236.086 378.718 236.564C378.408 237.742 378.096 238.931 378.05 240.148C378.004 241.365 378.225 242.575 378.445 243.772L380.621 255.599C380.712 256.095 380.819 256.622 381.17 256.983C381.522 257.344 382.207 257.422 382.491 257.006C385.712 252.297 388.977 247.495 390.662 242.044C390.871 241.367 390.932 240.414 390.268 240.164C386.848 238.877 383.603 237.127 380.649 234.976ZM405.774 205.796C404.684 204.757 403.242 204.094 401.744 203.941C400.378 203.802 399.59 205.721 400.213 206.944C400.837 208.167 402.214 208.773 403.489 209.284C404.388 209.644 405.479 209.984 406.264 209.415C407.391 208.597 406.783 206.757 405.774 205.796ZM396.805 219.501C397.249 219.184 397.307 218.538 397.182 218.006C396.714 216.004 394.519 214.982 392.548 214.395C391.786 214.169 390.837 214.011 390.3 214.597C389.851 215.087 389.947 215.897 390.334 216.437C390.721 216.977 391.326 217.309 391.911 217.624L394.955 219.264C395.533 219.575 396.269 219.881 396.805 219.501ZM414.124 212.286C413.48 213.148 413.545 214.403 414.083 215.336C414.621 216.269 415.552 216.918 416.534 217.359C416.871 217.51 417.241 217.643 417.603 217.571C417.914 217.509 418.181 217.299 418.371 217.045C419.075 216.105 418.733 214.69 417.928 213.836C417.122 212.983 415.976 212.555 414.872 212.155C414.682 212.086 414.46 212.02 414.287 212.124C414.221 212.164 414.17 212.224 414.124 212.286ZM108.852 290.505C109.274 287.391 109.864 283.963 112.311 281.99C114.263 280.418 116.941 280.167 119.447 280.118C127.656 279.961 135.891 281.294 143.63 284.033C146.079 284.9 148.641 286.041 149.98 288.267C151.429 290.676 151.076 293.715 150.675 296.498L144.459 339.683C148.745 327.177 151.823 314.256 153.634 301.16C154.479 295.051 154.774 288.04 150.51 283.584C143.853 276.627 144.035 266.719 144.22 256.643C144.379 247.948 144.54 239.129 140.311 231.976C138.93 229.643 142.007 227.233 144.567 226.337C155.846 222.388 167.87 220.576 179.812 221.026C182.002 238.321 182.594 255.819 181.579 273.223C181.352 277.126 186.887 278.133 190.773 277.702L325.586 262.753C326.261 262.679 326.991 262.578 327.469 262.097C328.027 261.535 328.055 260.652 328.047 259.859C327.729 228.273 326.82 196.693 325.32 165.14C325.262 163.909 325.105 162.495 324.086 161.801C323.321 161.281 322.316 161.35 321.396 161.44L225.171 170.767C231.493 140.954 237.85 110.58 234.967 80.2403C213.932 94.2652 186.789 94.16 161.55 92.6749C160.502 92.6131 159.45 92.5503 158.397 92.4874C134.109 91.0358 108.781 89.5221 86.946 100.029C98.3788 130.341 109.943 163.429 100.439 194.401C99.5984 197.141 98.598 199.832 97.5981 202.523C96.0564 206.671 94.5158 210.816 93.563 215.131C91.9923 222.245 92.2284 230.21 96.4384 236.156C102.535 244.765 107.379 254.555 108.484 265.046C109.533 275.002 107.19 284.876 104.85 294.739C102.404 305.044 99.962 315.337 101.394 325.698C101.636 327.451 102.074 329.337 103.447 330.454L108.852 290.505ZM118.39 165.397C120.94 165.487 121.953 168.688 122.279 171.218L124.86 191.253C119.821 188.64 112.731 193.075 112.875 198.75C108.629 190.553 107.983 181.159 107.345 171.86C107.206 169.837 107.067 167.818 106.892 165.818C105.017 144.423 98.569 123.73 92.161 103.232C91.2473 100.309 95.194 98.4133 98.224 97.9691C118.108 95.0539 138.232 95.4564 158.365 95.8591C167.491 96.0416 176.618 96.2242 185.727 96.0978C201.911 95.8733 219.035 94.3416 232.163 84.8742C235.114 104.545 231.103 124.391 227.144 143.988C226.608 146.638 226.073 149.285 225.557 151.925C221.222 174.087 218.272 197.709 226.565 218.713C226.915 219.598 225.723 220.265 224.792 220.459C217.971 221.882 210.919 222.188 204 221.363C201.032 221.008 198.096 220.449 195.159 219.889C192.947 219.467 190.735 219.045 188.509 218.711C171.751 216.197 154.26 218.807 138.966 226.104C138.353 226.396 137.624 226.259 136.982 226.037C133.884 224.965 131.675 222.103 130.572 219.016C129.47 215.93 129.312 212.598 129.165 209.324L128.548 195.59C128.526 195.097 128.655 194.427 129.149 194.411C155.94 193.574 182.701 191.768 209.362 188.998C208.234 182.69 208.122 176.201 209.032 169.858C209.606 165.854 205.84 162.203 201.83 161.667C197.821 161.132 193.856 162.948 190.526 165.246C189.281 166.105 188.085 167.039 186.89 167.972C184.89 169.533 182.892 171.093 180.668 172.302C179.212 173.093 177.461 173.731 175.932 173.092C174.061 172.31 173.433 170.084 172.873 168.097C172.838 167.972 172.803 167.848 172.768 167.726C172.039 165.167 170.834 162.62 168.714 161.01C166.595 159.401 163.398 159 161.306 160.645C159.517 162.051 158.952 164.487 158.652 166.742C158.626 166.943 158.6 167.145 158.574 167.347C158.308 169.421 158.034 171.564 156.796 173.227C155.438 175.052 152.407 175.834 150.917 174.115C147.97 170.714 142.8 170.001 138.462 171.194C134.124 172.388 130.411 175.144 126.812 177.844C124.641 174.446 124.461 169.87 126.359 166.313L126.391 166.253C126.748 165.585 127.158 164.818 126.842 164.138C126.647 163.717 126.216 163.458 125.789 163.275C123.236 162.181 119.975 163.116 118.39 165.397ZM195.101 222.826C196.529 223.111 198.283 223.747 198.371 225.2C199.213 239.055 210.224 251.506 223.762 254.572C237.299 257.639 252.303 251.438 260.196 240.02C268.09 228.602 268.708 212.741 262.235 200.462C255.294 187.293 238.424 180.3 224.202 184.695C223.542 181.785 223.616 178.711 224.416 175.837C224.565 175.303 224.758 174.745 225.189 174.396C225.61 174.056 226.179 173.978 226.716 173.914L266.781 169.088C270.303 168.664 273.834 168.239 277.382 168.21C292.638 168.084 307.882 166.563 322.862 163.671C325.19 194.927 326.285 226.274 326.145 257.616C326.138 259.103 325.685 261.078 324.199 261.122C298.984 261.856 273.968 265.173 248.942 268.491C232.129 270.72 215.31 272.95 198.424 274.398C194.661 274.721 190.871 275.004 187.111 274.646C186.429 274.581 185.66 274.442 185.29 273.866C185.066 273.519 185.041 273.084 185.023 272.672L182.775 222.541C182.745 221.893 182.785 221.113 183.346 220.787C183.717 220.572 184.183 220.649 184.604 220.733L195.101 222.826ZM126.117 211.22C125.718 213.824 125.27 216.753 126.976 218.723C133.338 226.071 139.948 233.922 141.639 243.493C142.429 247.963 142.09 252.563 141.752 257.144C141.326 262.915 140.903 268.656 142.741 274.07C142.788 274.211 142.838 274.353 142.888 274.494C143.225 275.46 143.57 276.443 143.46 277.451C143.335 278.607 142.331 279.769 141.186 279.572L127.885 277.278C123.48 276.518 118.826 275.779 114.642 277.351C113.833 277.655 112.902 277.122 112.469 276.374C112.035 275.627 111.978 274.727 111.941 273.863C111.895 272.821 111.861 271.771 111.827 270.719C111.612 264.097 111.393 257.351 108.328 251.55L98.5496 233.039C97.106 230.306 95.6287 227.451 95.5291 224.363C95.4626 222.3 96.0194 220.274 96.5715 218.285L101.45 200.713C102.477 197.013 103.563 193.196 105.996 190.225C111.904 200.25 112.487 213.219 107.502 223.733C107.041 224.705 108.45 225.707 109.454 225.319C110.458 224.932 110.968 223.831 111.322 222.815C112.74 218.743 113.238 214.45 113.736 210.151C114.138 206.673 114.542 203.191 115.434 199.818C115.98 197.752 116.768 195.643 118.364 194.221C119.959 192.799 122.561 192.312 124.233 193.644C125.512 194.662 125.928 196.404 126.172 198.021C126.814 202.288 126.811 206.651 126.163 210.918C126.148 211.018 126.132 211.119 126.117 211.22ZM149.067 176.529C151.028 178.029 152.948 179.499 155.3 179.227C158.29 178.881 160.154 175.803 161.022 172.921C161.212 172.29 161.381 171.645 161.551 170.998C162.156 168.689 162.765 166.361 164.35 164.624C164.81 164.119 165.473 163.649 166.127 163.847C166.657 164.007 166.965 164.544 167.211 165.04C167.56 165.742 167.89 166.457 168.22 167.172C169.151 169.187 170.082 171.204 171.433 172.955C173.264 175.328 176.112 177.194 179.091 176.867C181.754 176.575 183.835 174.689 185.864 172.851C186.28 172.474 186.693 172.099 187.11 171.74C191.995 167.527 198.359 165.062 204.808 164.884C203.938 167.058 204.518 169.43 205.087 171.757C205.224 172.317 205.361 172.875 205.476 173.426C206.386 177.779 205.926 182.408 204.177 186.496L161.102 189.812C151.046 190.586 140.965 191.361 130.886 191.007C130.249 190.984 129.596 190.954 129.01 190.703C127.904 190.23 127.247 189.049 127.009 187.869C126.475 185.225 127.694 182.47 129.541 180.503C131.388 178.536 133.8 177.211 136.169 175.92C138.634 174.575 141.371 173.186 144.119 173.76C145.948 174.142 147.52 175.345 149.067 176.529ZM230.634 239.275C224.109 239.141 218.455 233.817 216.517 227.584C216.122 226.312 216.944 224.916 218.079 224.217C219.214 223.518 220.587 223.353 221.911 223.204L231.473 222.13C228.565 216.479 226.494 210.397 225.348 204.146C225.244 203.579 225.149 202.983 225.329 202.435C225.643 201.473 226.68 200.966 227.64 200.644C235.408 198.033 244.736 201.203 249.304 208.007C253.873 214.811 253.274 224.646 247.912 230.845C245.591 233.528 242.549 235.509 239.345 237.033C236.612 238.333 233.659 239.338 230.634 239.275ZM261.6 205.683C262.761 209.517 263.097 213.55 263.256 217.553C260.649 217.158 258.016 216.934 255.379 216.883C254.863 210.15 250.382 204.067 244.49 200.767C238.599 197.467 231.488 196.753 224.83 197.883C224.774 196.934 224.601 195.944 224.428 194.954C223.971 192.34 223.514 189.726 225.204 187.871C226.225 186.751 227.78 186.302 229.27 186.025C236.058 184.76 243.295 186.085 249.194 189.672C255.093 193.259 259.6 199.075 261.6 205.683ZM213.741 226.905C213.73 227.029 213.72 227.151 213.714 227.268C213.67 228.199 214.104 229.052 214.533 229.897C214.648 230.123 214.763 230.349 214.868 230.575C215.365 231.647 215.606 233.058 214.775 233.897C212.763 235.928 210.986 238.19 209.489 240.624C209.118 241.226 208.207 241.275 207.598 240.916C206.989 240.557 206.611 239.917 206.26 239.304C204.034 235.424 201.753 231.365 201.475 226.9C201.441 226.345 201.502 225.673 201.994 225.414C202.211 225.3 202.467 225.297 202.712 225.296L212.666 225.266C212.904 225.265 213.154 225.267 213.361 225.385C213.849 225.662 213.793 226.307 213.741 226.905Z" fill="#00160A"/>
</svg>
