<svg width="816" height="912" viewBox="0 0 816 912" fill="none" xmlns="http://www.w3.org/2000/svg">
    <rect x="211" y="826" width="392" height="74" fill="#238580"/>
    <path d="M624.5 901C525.5 889.5 297 884.651 192 900.5C180.5 902.236 180.5 907.5 198 908.5C257.852 910.586 338 911.5 416 908C511 912.5 588.992 912.789 625 910.5C647.154 909.091 638.041 902.573 624.5 901Z" fill="black"/>
    <path d="M120.245 752.581C131.466 669.561 150.783 626.632 207.636 558.725C208.016 558.271 208.585 558 209.176 558H599.929C600.598 558 601.23 558.345 601.601 558.903C652.04 634.745 673.584 680.778 685.855 768.574C685.945 769.221 685.714 769.884 685.235 770.328L616.959 833.575C616.66 833.852 616.274 834.032 615.87 834.089C440.932 858.914 362.797 859.652 179.172 821.607C178.105 821.386 177.381 820.345 177.581 819.275L186.518 771.511C186.716 770.455 186.044 769.431 184.996 769.193L121.779 754.814C120.771 754.585 120.107 753.605 120.245 752.581Z" fill="#FF5D16"/>
    <path d="M219 685.5C211.5 708.967 203.462 730.336 201.5 753.5M591.5 687.5C597.794 712.374 599.852 745.069 601.5 773" stroke="black" stroke-width="3" stroke-linecap="round"/>
    <path d="M414 647.5L412 856.5" stroke="black" stroke-width="6" stroke-linecap="round"/>
    <path d="M279 686.5H356M279 686.5L277.5 779H356V686.5M279 686.5L318 731.5L356 686.5M464.5 682L543 680.5M464.5 682V773.5H544L543 680.5M464.5 682L504.5 726L543 680.5" stroke="black" stroke-width="4" stroke-linecap="round"/>
    <circle cx="646.5" cy="797.5" r="50.5" fill="#4EC33D"/>
    <circle cx="609.136" cy="784.136" r="21.6365" fill="#4EC33D" stroke="black"/>
    <circle cx="158.5" cy="781.5" r="48.5" fill="#4BC53D"/>
    <circle cx="194.136" cy="766.136" r="21.6365" fill="#4BC53D" stroke="black"/>
    <path d="M414.5 646.5C379 681.5 180 576.5 203 552L611.5 549.5C638.5 594 457.5 682.5 414.5 646.5Z" fill="#00AD52" stroke="black"/>
    <ellipse cx="408" cy="380.5" rx="291" ry="254.5" fill="#FFEBC2"/>
    <path d="M422.003 593.075C420.556 594.206 418.524 594.206 417.077 593.075L327.769 523.278C324.772 520.935 326.428 516.126 330.232 516.126L508.848 516.126C512.652 516.126 514.308 520.935 511.311 523.278L422.003 593.075Z" fill="black"/>
    <path d="M371.352 519.679H340.441C338.786 519.679 337.847 521.575 338.85 522.891L347.253 533.92C347.584 534.355 348.079 534.635 348.623 534.696L371.132 537.197C372.316 537.328 373.352 536.401 373.352 535.209V521.679C373.352 520.575 372.457 519.679 371.352 519.679Z" fill="white"/>
    <path d="M409.92 519.679H378.195C377.09 519.679 376.195 520.575 376.195 521.679V538.286C376.195 539.39 377.09 540.286 378.195 540.286H411.638C412.824 540.286 413.749 539.26 413.627 538.08L411.909 521.473C411.804 520.454 410.945 519.679 409.92 519.679Z" fill="white"/>
    <path d="M415.766 539.884L413.416 520.499C413.272 519.307 414.202 518.258 415.402 518.258H462.72C464.149 518.258 465.117 519.713 464.564 521.031L456.985 539.105C456.683 539.825 455.99 540.303 455.211 540.331L417.822 541.643C416.784 541.679 415.891 540.915 415.766 539.884Z" fill="white"/>
    <path d="M501.635 518.258H469.189C468.383 518.258 467.656 518.741 467.345 519.484L459.85 537.356C459.281 538.714 460.324 540.201 461.794 540.127L486.234 538.905C486.754 538.879 487.243 538.651 487.598 538.27L503.099 521.621C504.29 520.342 503.383 518.258 501.635 518.258Z" fill="white"/>
    <ellipse cx="327.179" cy="352.47" rx="86.1624" ry="94.62" transform="rotate(23.9785 327.179 352.47)" fill="white"/>
    <circle cx="356.661" cy="352.976" r="7.26048" fill="black"/>
    <ellipse rx="86.1624" ry="94.62" transform="matrix(-0.913698 0.406394 0.406394 0.913698 496.504 352.53)" fill="white"/>
    <circle cx="458.308" cy="352.976" r="7.26048" fill="black"/>
    <path d="M117 58C117 25.9675 142.967 0 175 0H645C677.032 0 703 25.9675 703 58V246H117V58Z" fill="#4CC53D"/>
    <ellipse cx="104.99" cy="347.202" rx="57.1088" ry="146.951" transform="rotate(20.1698 104.99 347.202)" fill="#4EC33D"/>
    <ellipse cx="710.122" cy="352.076" rx="57.1088" ry="148.308" transform="rotate(-20.4593 710.122 352.076)" fill="#4EC33D"/>
    <path d="M157.5 274V110.5L663.5 111V274C464.598 239.129 353.811 239.275 157.5 274Z" fill="#00AD51"/>
    <path d="M491.5 223L572.5 261.5M319 215L245.5 261.5" stroke="black" stroke-width="9" stroke-linecap="square"/>
</svg>
