<svg width="678" height="971" viewBox="0 0 678 971" fill="none" xmlns="http://www.w3.org/2000/svg">
    <rect x="129.222" y="877.564" width="419.286" height="78.3583" fill="#316DBF"/>
    <path d="M328.555 953.173C230.951 928.428 129.91 940.113 90.0432 964.17C268.579 961.292 378.594 962.778 590.437 970.357C572.565 953.173 436.469 938.051 328.555 953.173Z" fill="black"/>
    <path d="M45.5972 808.4C56.7833 722.049 76.0356 677.422 132.739 606.816C133.118 606.344 133.699 606.06 134.304 606.06H526.792C527.475 606.06 528.118 606.419 528.485 606.995C578.763 685.842 597.335 733.691 609.545 824.982C609.631 825.621 609.404 826.274 608.935 826.716L553.02 879.262C552.766 879.501 552.448 879.671 552.109 879.751C386.735 919.292 287.605 919.6 104.327 880.04C103.275 879.812 102.567 878.787 102.757 877.727L111.704 827.875C111.892 826.83 111.23 825.821 110.197 825.576L47.1153 810.618C46.1203 810.383 45.4659 809.414 45.5972 808.4Z" fill="#D06E5F"/>
    <path d="M138.158 737.344C130.664 762.193 127.746 776.052 125.786 800.581M514.141 744.218C520.429 770.557 522.804 786.127 524.451 815.702" stroke="black" stroke-width="3" stroke-linecap="round"/>
    <path d="M336.116 727.034L327.868 907.12" stroke="black" stroke-width="3" stroke-linecap="round"/>
    <circle cx="307.935" cy="741.468" r="8.24824" fill="black"/>
    <circle cx="305.185" cy="801.955" r="8.24824" fill="black"/>
    <circle cx="302.436" cy="870.691" r="8.24824" fill="black"/>
    <path d="M145.032 644.551C138.319 633.35 136.895 627.507 141.595 618.432L319.62 687.167C336.054 703.149 337.33 710.731 323.744 721.535C282.503 727.721 204.396 696.385 145.032 644.551Z" fill="#FF1E3F"/>
    <path d="M334.741 710.537C335.742 700.054 339.953 694.034 353.987 683.043L507.954 624.618C530.997 622.998 535.034 626.907 532.699 639.053C508.642 683.043 422.723 725.659 348.488 725.659C337.747 723.704 334.85 720.313 334.741 710.537Z" fill="#FF1E3F"/>
    <path d="M145.032 644.551C138.319 633.35 136.895 627.507 141.595 618.432L319.62 687.167C336.054 703.149 337.33 710.731 323.744 721.535C282.503 727.721 204.396 696.385 145.032 644.551Z" stroke="black" stroke-linecap="round"/>
    <path d="M334.741 710.537C335.742 700.054 339.953 694.034 353.987 683.043L507.954 624.618C530.997 622.998 535.034 626.907 532.699 639.053C508.642 683.043 422.723 725.659 348.488 725.659C337.747 723.704 334.85 720.313 334.741 710.537Z" stroke="black" stroke-linecap="round"/>
    <circle cx="569.816" cy="837.01" r="48.8021" fill="#FF1F41"/>
    <circle cx="530.637" cy="826.7" r="21.4953" fill="#FF1F41" stroke="black"/>
    <circle cx="86.6065" cy="825.325" r="52.2389" fill="#FF1F41"/>
    <circle cx="118.225" cy="811.578" r="21.4953" fill="#FF1F41" stroke="black"/>
    <circle cx="325.118" cy="376.484" r="309.996" fill="#FFEABF"/>
    <path d="M326.894 632.316C325.447 633.447 323.415 633.447 321.968 632.316L235.958 565.096C232.961 562.754 234.618 557.945 238.422 557.945L410.441 557.945C414.245 557.945 415.901 562.754 412.904 565.096L326.894 632.316Z" fill="black"/>
    <path d="M277.753 561.382H248.049C246.394 561.382 245.455 563.277 246.458 564.594L254.489 575.135C254.821 575.57 255.316 575.85 255.859 575.911L277.532 578.319C278.717 578.45 279.753 577.523 279.753 576.331V563.382C279.753 562.277 278.857 561.382 277.753 561.382Z" fill="white"/>
    <path d="M315.066 561.382H284.502C283.398 561.382 282.502 562.277 282.502 563.382V579.315C282.502 580.419 283.398 581.315 284.502 581.315H316.714C317.9 581.315 318.826 580.289 318.704 579.109L317.056 563.176C316.95 562.156 316.091 561.382 315.066 561.382Z" fill="white"/>
    <path d="M320.773 580.867L318.516 562.248C318.372 561.056 319.302 560.007 320.502 560.007H366.101C367.531 560.007 368.498 561.462 367.946 562.78L360.668 580.134C360.367 580.854 359.674 581.332 358.894 581.36L322.829 582.625C321.791 582.662 320.898 581.898 320.773 580.867Z" fill="white"/>
    <path d="M403.693 560.007H372.501C371.695 560.007 370.968 560.49 370.657 561.233L363.464 578.385C362.894 579.743 363.938 581.23 365.408 581.156L388.919 579.981C389.439 579.955 389.928 579.727 390.283 579.346L405.157 563.37C406.348 562.091 405.441 560.007 403.693 560.007Z" fill="white"/>
    <ellipse cx="244.281" cy="391.814" rx="81.5704" ry="89.5773" transform="rotate(23.9785 244.281 391.814)" fill="white"/>
    <circle cx="272.192" cy="392.293" r="6.87354" fill="black"/>
    <ellipse rx="81.5704" ry="89.5773" transform="matrix(-0.913698 0.406394 0.406394 0.913698 404.582 391.871)" fill="white"/>
    <circle cx="368.422" cy="392.293" r="6.87354" fill="black"/>
    <mask id="mask0_201_64" style="mask-type:alpha" maskUnits="userSpaceOnUse" x="8" y="22" width="670" height="308">
        <path d="M223.39 280.254L8.93555 329.056L37.117 122.163L275.629 22.4965L610.37 109.79L677.731 329.056L494.207 291.939L223.39 280.254Z" fill="#D9D9D9"/>
    </mask>
    <g mask="url(#mask0_201_64)">
        <circle cx="325.118" cy="376.484" r="309.996" fill="#3A73C5"/>
    </g>
    <path d="M648.862 359.3C508.508 287.207 131.769 268.585 0 359.3V293.24C259.509 209.204 366.62 208.842 648.862 293.24V359.3Z" fill="#FF2042"/>
    <path d="M443.343 271.318L503.83 322.87M211.017 263.758L146.406 315.309" stroke="black" stroke-width="9" stroke-linecap="square"/>
    <path d="M241.219 97.8406L382.021 59.7454" stroke="#FF2042" stroke-width="12" stroke-linecap="round"/>
    <path d="M330.86 8.44398L292.379 149.142" stroke="#FF2042" stroke-width="12" stroke-linecap="round"/>
    <path d="M307.108 6L316.132 151.586" stroke="#FF2042" stroke-width="12" stroke-linecap="round"/>
    <path d="M284.246 11.1924L338.994 146.394" stroke="#FF2042" stroke-width="12" stroke-linecap="round"/>
    <path d="M262.265 25.0971L360.975 132.489" stroke="#FF2042" stroke-width="12" stroke-linecap="round"/>
    <path d="M246.95 45.0736L376.29 112.512" stroke="#FF2042" stroke-width="12" stroke-linecap="round"/>
    <path d="M239.199 70.1653L384.04 87.4207" stroke="#FF2042" stroke-width="12" stroke-linecap="round"/>
    <path d="M261.431 131.711L361.809 25.8755" stroke="#FF2042" stroke-width="12" stroke-linecap="round"/>
</svg>
